<svg xmlns="http://www.w3.org/2000/svg" viewBox="0 0 240 240.056"><path d="M164.708 147.306q10.124-13.119 20.356-25.84-10.232-12.722-20.356-25.841-10.121-13.121-19.914-26.439v104.558q9.795-13.315 19.914-26.438Zm16.573 26.438h-36.487v27.849h-34.469V75.895q-9.426 4.825-18.958 9.88-9.538 5.058-18.04 9.882V63.946Q82.516 58.66 93.78 52.8q11.257-5.86 23.669-11.836h27.345v28.222h36.487q11.13 17.294 23.806 34.986 12.623-17.616 23.707-34.837a120 120 0 1 0-.79 103.049q-10.75-16.63-22.917-33.626-12.68 17.694-23.806 34.986Zm57.654-69.743q-6.89 8.81-13.826 17.464 6.766 8.412 13.479 17.02a121.187 121.187 0 0 0 .347-34.484Z"/><path d="M144.794 40.964h-27.345q-12.41 5.98-23.67 11.835-11.262 5.86-20.451 11.146v31.712q8.497-4.828 18.039-9.882 9.532-5.052 18.958-9.88v125.697h34.469ZM238.934 104a119.154 119.154 0 0 0-10.14-34.665q-11.083 17.213-23.708 34.837-12.68-17.694-23.805-34.986h-36.487q9.795 13.315 19.913 26.439 10.125 13.118 20.357 25.84-10.232 12.72-20.357 25.84-10.12 13.121-19.913 26.439h36.487q11.129-17.294 23.805-34.986 12.18 16.997 22.917 33.625a119.138 119.138 0 0 0 10.585-33.898 1619.977 1619.977 0 0 0-13.48-17.02A1625.972 1625.972 0 0 0 238.934 104Z" fill="#fff"/></svg>